<?xml version="1.0" standalone="no"?>
<!DOCTYPE svg PUBLIC "-//W3C//DTD SVG 20010904//EN"
 "http://www.w3.org/TR/2001/REC-SVG-20010904/DTD/svg10.dtd">
<svg version="1.0" xmlns="http://www.w3.org/2000/svg"
 width="70.000000pt" height="70.000000pt" viewBox="0 0 70.000000 70.000000"
 preserveAspectRatio="xMidYMid meet">
<metadata>
Created by potrace 1.14, written by Peter Selinger 2001-2017
</metadata>
<g transform="translate(0.000000,70.000000) scale(0.100000,-0.100000)"
fill="#000000" stroke="none">
<path d="M290 661 c-25 -4 -53 -11 -63 -17 -17 -10 -16 -12 10 -21 179 -67
218 -86 332 -160 46 -30 85 -52 88 -50 10 11 -30 84 -57 102 -16 11 -30 23
-30 28 0 4 -5 7 -11 7 -5 0 -27 11 -47 25 -20 14 -33 25 -28 25 12 0 76 -39
105 -64 l25 -21 -19 30 c-55 88 -179 135 -305 116z m89 -12 c17 -6 31 -15 31
-20 0 -5 -12 -3 -27 4 -16 8 -35 17 -43 20 -29 10 7 7 39 -4z m77 -34 c10 -8
14 -15 8 -15 -5 0 -19 7 -30 15 -10 8 -14 15 -8 15 5 0 19 -7 30 -15z"/>
<path d="M155 605 c-22 -18 -25 -25 -15 -29 8 -3 47 -15 85 -26 39 -12 86 -29
105 -38 19 -9 37 -17 40 -17 11 -2 100 -51 160 -89 69 -43 81 -51 110 -78 21
-19 26 -15 28 25 2 23 -8 35 -58 71 -101 74 -189 119 -378 190 -23 9 -43 16
-45 16 -1 -1 -15 -12 -32 -25z"/>
<path d="M102 558 c-20 -20 -13 -36 18 -43 17 -4 30 -11 30 -16 0 -6 -4 -7
-10 -4 -12 8 -4 -63 21 -170 22 -95 52 -178 67 -183 20 -6 23 42 6 83 -22 53
-41 128 -48 190 -4 34 0 23 14 -35 26 -110 49 -180 60 -180 5 0 14 9 20 21 9
17 7 31 -10 71 -12 28 -24 63 -26 77 -3 14 -7 34 -10 44 -3 9 -1 17 5 17 6 0
10 -3 9 -7 -7 -26 37 -163 52 -163 4 0 11 12 16 28 8 30 8 30 -2 57 -7 17 -6
18 8 7 13 -11 17 -9 22 13 4 14 11 25 16 25 9 0 6 -10 -40 -114 -26 -59 -96
-168 -116 -179 -21 -12 -17 -22 13 -36 26 -12 30 -10 57 21 48 57 92 130 116
195 24 66 35 83 24 36 -18 -75 -75 -174 -143 -249 -7 -8 -10 -18 -7 -21 4 -4
103 -7 222 -7 185 -1 214 1 212 14 -3 12 -22 15 -101 14 -53 -1 -97 1 -97 3 0
1 16 25 34 51 59 81 73 132 45 158 -10 9 -19 14 -19 9 0 -4 -12 4 -27 19 -31
31 -35 28 -58 -39 -25 -77 -108 -215 -129 -215 -3 0 14 27 38 60 42 56 81 141
92 200 7 33 -31 73 -46 50 -9 -14 -11 -13 -14 9 -1 10 -90 61 -105 61 -4 0 -6
-15 -5 -32 3 -31 3 -31 -8 6 -8 30 -18 41 -47 53 -20 9 -46 15 -58 15 -13 0
-23 7 -23 14 0 8 1 14 3 14 7 0 169 -71 215 -94 90 -46 287 -179 242 -164 -11
4 -25 -16 -51 -67 -19 -40 -31 -71 -25 -69 21 9 77 92 93 140 l16 48 -44 38
c-24 21 -56 44 -71 51 -16 6 -28 15 -28 18 0 13 -228 118 -311 143 -101 30
-92 29 -107 14z m428 -349 c-21 -45 -41 -80 -50 -89 -3 -3 -13 -17 -23 -32
-10 -16 -23 -28 -30 -28 -8 0 -9 2 -1 8 19 12 92 131 105 170 7 20 14 32 16
26 2 -6 -6 -30 -17 -55z"/>
<path d="M78 514 c-3 -2 -4 -21 -3 -42 1 -20 0 -27 -2 -14 -6 33 -21 27 -29
-13 -7 -38 0 -89 25 -182 18 -67 58 -150 76 -157 13 -5 16 -2 10 11 -23 57
-47 136 -65 210 -24 100 -23 93 -8 93 6 0 9 -2 6 -5 -12 -13 52 -249 84 -308
9 -17 11 -18 28 -2 17 15 17 19 -10 88 -30 79 -65 226 -69 294 -1 14 -35 35
-43 27z"/>
<path d="M31 310 c9 -55 46 -147 56 -137 3 4 1 12 -5 19 -5 7 -18 48 -29 90
-20 87 -34 104 -22 28z"/>
</g>
</svg>
