<?xml version="1.0" encoding="UTF-8" standalone="no"?>
<svg
   version="1.1"
   style="display: block;"
   viewBox="0 0 2048 2048"
   width="1024"
   height="1024"
   preserveAspectRatio="none"
   id="svg1"
   sodipodi:docname="icon-white.svg"
   inkscape:version="1.4.2 (f4327f4, 2025-05-13)"
   xmlns:inkscape="http://www.inkscape.org/namespaces/inkscape"
   xmlns:sodipodi="http://sodipodi.sourceforge.net/DTD/sodipodi-0.dtd"
   xmlns="http://www.w3.org/2000/svg"
   xmlns:svg="http://www.w3.org/2000/svg">
  <defs
     id="defs1" />
  <sodipodi:namedview
     id="namedview1"
     pagecolor="#ffffff"
     bordercolor="#000000"
     borderopacity="0.25"
     inkscape:showpageshadow="2"
     inkscape:pageopacity="0.0"
     inkscape:pagecheckerboard="true"
     inkscape:deskcolor="#d1d1d1"
     inkscape:zoom="0.78808594"
     inkscape:cx="511.36555"
     inkscape:cy="512"
     inkscape:window-width="1920"
     inkscape:window-height="1009"
     inkscape:window-x="-8"
     inkscape:window-y="-8"
     inkscape:window-maximized="1"
     inkscape:current-layer="svg1" />
  <path
     transform="translate(0,0)"
     fill="rgb(31,60,97)"
     d="M 743.634 507.418 C 768.815 505.005 797.923 508.396 822.71 512.557 C 896.733 525.09 962.709 566.607 1006.04 627.919 C 1049.03 688.592 1067.36 767.29 1062.55 840.99 C 1061.5 857.059 1059.05 871.349 1056.35 887.147 C 1065.78 880.451 1080.02 872.748 1090.59 865.522 C 1124.93 842.06 1145.39 818.494 1170.13 786.086 C 1159.28 739.634 1159.98 706.702 1177.97 662.189 C 1192.25 626.855 1199.01 616.606 1231.71 644.458 C 1259.05 667.737 1281.8 695.781 1293.33 729.938 C 1347.87 731.831 1401.29 759.976 1438.03 799.394 C 1456.55 819.258 1506.84 895.367 1505.29 921.852 C 1504.67 932.548 1494.7 947.09 1488.12 955.491 C 1454.83 998.012 1398.68 1014.98 1346.79 1019 C 1335.58 1019.87 1314.13 1018.56 1305.9 1020.01 C 1301.92 1020.72 1298.22 1022.57 1295.25 1025.32 C 1292.44 1027.91 1290.08 1032.55 1290.44 1036.28 C 1294.23 1075.65 1362.92 1076.47 1389 1075.88 C 1392.03 1070.31 1394.01 1065.03 1397.62 1059.61 C 1421.97 1023.07 1467.91 1027.5 1504.83 1037.42 L 1505.4 1036.42 C 1513.98 1021.68 1527.95 1009.43 1544.77 1005.31 C 1554.14 1003.02 1570.23 1003.07 1572.93 1015.15 C 1578.41 1039.62 1546.15 1036.48 1537.92 1049.39 C 1539.41 1053.97 1545.3 1057.2 1549.3 1059.67 C 1581.61 1079.58 1601.47 1113.74 1588.03 1151.55 C 1583.39 1164.57 1577.59 1167.75 1565.91 1173.38 C 1556.67 1192.29 1551.09 1211.12 1539.01 1228.78 C 1518.91 1258.79 1490.78 1272.54 1456.53 1279.95 C 1421.75 1287.47 1419.61 1296.01 1398.7 1262.77 C 1381.94 1236.12 1371.66 1221.68 1367.37 1189.12 C 1344.15 1198.91 1326.19 1207.51 1301.38 1212.79 C 1276.43 1215.39 1271.19 1212.29 1247.39 1209.32 C 1283.84 1292.98 1277.42 1351.57 1230.45 1428.77 C 1260.41 1428.28 1288.49 1425.86 1315.62 1440.09 C 1338.54 1451.46 1351.75 1470.52 1359.51 1494.49 C 1362.87 1504.86 1370.58 1537.32 1352.57 1540.01 C 1338.28 1542.14 1317.51 1541.06 1302.68 1541.06 C 1260.94 1541.23 1219.2 1541.04 1177.46 1540.49 L 1050.73 1540.45 C 931.008 1541.51 818.651 1548.88 712.668 1481.72 C 658.963 1447.61 615.166 1399.99 585.666 1343.63 C 519.595 1217.53 550.563 1070.85 621.003 955.185 C 632.844 935.741 644.995 919.273 654.503 898.212 C 677.674 846.884 637.886 799.756 583.583 813.619 C 541.051 824.815 516.306 865.517 497.434 902.171 C 492.643 911.475 480.303 914.715 471.754 908.214 C 462.571 900.206 461.911 884.57 460.136 873.199 C 441.452 753.529 482.467 627.253 586.871 558.813 C 637.328 525.737 683.898 512.238 743.634 507.418 z M 491.09 844.2 C 509.66 819.498 532.263 796.814 561.383 785.033 C 593.007 772.24 631.798 774.402 659.535 795.236 C 678.725 809.621 691.259 831.175 694.271 854.968 C 700.284 900.597 673.768 934.467 651.535 970.904 C 640.989 987.945 631.452 1005.59 622.974 1023.75 C 568.825 1141.45 563.182 1267.35 646.22 1374.2 C 663.916 1397.15 684.378 1417.82 707.14 1435.74 C 759.541 1476.27 823.894 1497.79 889.412 1504.29 C 919.29 1507.25 948.127 1506.73 978.074 1506.75 L 1075.66 1506.81 C 1159.9 1506.52 1244.15 1506.72 1328.4 1507.4 C 1308.28 1450.55 1259.71 1464.55 1211.46 1463.06 C 1200.14 1462.71 1181.3 1465.83 1176.41 1452.38 C 1172.32 1441.12 1180.46 1433.95 1187.26 1426.35 C 1193.2 1419.72 1199.11 1413.28 1204.26 1406.04 C 1234.86 1362.69 1244.12 1307.79 1229.42 1256.8 C 1211.29 1192.93 1153.33 1140.13 1086.57 1132.89 C 1077 1131.49 1066.41 1132.22 1057.3 1129 C 1041.7 1123.5 1047.69 1097.71 1062.31 1097.4 C 1106.22 1096.48 1152.34 1111.19 1187.34 1137.85 C 1195.74 1144.25 1203.28 1151.46 1211.87 1157.54 C 1233.95 1169.11 1266.09 1183.13 1291.24 1179.84 C 1314.83 1176.75 1335.22 1164.69 1357.55 1156.91 C 1376.01 1150.48 1399.1 1152.31 1413.74 1142.22 C 1426.17 1121.45 1414.27 1109.71 1392.33 1108.93 C 1384.83 1108.66 1377.22 1109.25 1369.75 1108.99 C 1336.79 1108.32 1296.45 1103.08 1272.39 1078.03 C 1251.63 1056.42 1250.55 1019.58 1273.29 998.626 C 1293.99 979.548 1314 987.608 1338.62 985.958 C 1387.19 982.705 1446.82 967.046 1470.51 919.928 C 1461.39 894.558 1445.21 865.504 1429.94 843.13 C 1412.18 817.115 1384.55 794.464 1356.09 781.046 C 1341.93 774.369 1326.31 769.048 1310.97 765.85 C 1299.61 763.633 1285.4 763.788 1275.02 760.084 C 1267.76 757.49 1262.97 745.592 1260.43 738.589 C 1250.52 711.275 1231.75 689.643 1210.39 670.031 C 1200.33 695.961 1191.43 732.729 1199.32 760.262 C 1209.24 794.885 1205.07 794.777 1185.69 821.402 C 1130.65 897.008 1055.27 924.437 973.466 960.102 C 901.603 991.433 832.219 1050.66 805.56 1125.97 C 775.7 1206.51 783.703 1296.41 814.672 1375.34 C 818.481 1386.04 832.025 1403.04 827.837 1414.46 C 822.193 1429.52 803.234 1429.76 796.138 1415.63 C 746.412 1316.58 736.047 1191.92 783.508 1090.03 C 829.68 990.92 921.323 943.048 1017.44 904.42 C 1060.86 760.056 991.067 590.673 839.616 551.108 C 810.77 543.573 770.662 537.58 740.801 541.39 C 599.929 556.1 503.082 647.788 490.816 791.69 C 489.254 810.005 490.759 826.015 491.09 844.2 z M 1458.91 1064.42 C 1444.29 1065.52 1436.67 1068.25 1424.98 1077.91 C 1460.05 1094.45 1499.89 1110.11 1535.85 1125.65 C 1543.49 1129.13 1551.19 1132.47 1558.95 1135.68 C 1558.82 1131.79 1558.71 1125.59 1557.57 1122.06 C 1545.73 1085.18 1494.13 1064.47 1458.91 1064.42 z M 1453.48 1127.61 C 1450.04 1161.85 1433.91 1177.05 1400.56 1182.41 C 1405.53 1215.25 1412.99 1223.59 1432.33 1250.75 C 1444.61 1247.6 1459.94 1244.99 1471.24 1240.28 C 1509.88 1223.86 1518.33 1199.42 1534.05 1162.73 C 1508.17 1150.56 1477.56 1139.25 1453.48 1127.61 z"
     id="path1"
     style="fill:#ffffff;fill-opacity:1" />
</svg>
