<?xml version="1.0" encoding="UTF-8" standalone="no"?>
<svg
   version="1.1"
   viewBox="0 0 1136.524 1034.7209"
   width="568.26202"
   height="517.36047"
   id="svg1"
   sodipodi:docname="logo3-solid.svg"
   inkscape:version="1.4.2 (f4327f4, 2025-05-13)"
   xmlns:inkscape="http://www.inkscape.org/namespaces/inkscape"
   xmlns:sodipodi="http://sodipodi.sourceforge.net/DTD/sodipodi-0.dtd"
   xmlns="http://www.w3.org/2000/svg"
   xmlns:svg="http://www.w3.org/2000/svg">
  <defs
     id="defs1">
    <marker
       style="overflow:visible"
       id="ArrowWide"
       refX="0"
       refY="0"
       orient="auto-start-reverse"
       inkscape:stockid="Wide arrow"
       markerWidth="1"
       markerHeight="1"
       viewBox="0 0 1 1"
       inkscape:isstock="true"
       inkscape:collect="always"
       preserveAspectRatio="xMidYMid">
      <path
         style="fill:none;stroke:context-stroke;stroke-width:1;stroke-linecap:butt"
         d="M 3,-3 0,0 3,3"
         transform="rotate(180,0.125,0)"
         sodipodi:nodetypes="ccc"
         id="path1" />
    </marker>
  </defs>
  <sodipodi:namedview
     id="namedview1"
     pagecolor="#000000"
     bordercolor="#000000"
     borderopacity="0.25"
     inkscape:showpageshadow="2"
     inkscape:pageopacity="0.0"
     inkscape:pagecheckerboard="false"
     inkscape:deskcolor="#d1d1d1"
     inkscape:zoom="1.5598408"
     inkscape:cx="284.00333"
     inkscape:cy="258.68024"
     inkscape:window-width="1920"
     inkscape:window-height="1009"
     inkscape:window-x="-8"
     inkscape:window-y="-8"
     inkscape:window-maximized="1"
     inkscape:current-layer="svg1" />
  <path
     d="m 1003.7343,559.24216 c -14.61999,1.1 -22.23966,3.82828 -33.92966,13.48828 35.07006,16.54 74.91106,32.19828 110.87106,47.73828 7.64,3.48 15.3416,6.82125 23.1016,10.03125 -0.13,-3.89 -0.2428,-10.09109 -1.3828,-13.62109 -11.84,-36.88 -63.4402,-57.58672 -98.6602,-57.63672 z"
     style="fill:#000000;fill-opacity:0"
     id="path5" />
  <path
     d="m 998.30464,622.42966 c -3.44,34.24 -19.56796,49.44078 -52.91796,54.80078 4.97,32.84 12.42953,41.17984 31.76953,68.33984 12.28,-3.15 27.61019,-5.75875 38.91019,-10.46875 38.64,-16.42 47.0886,-40.86078 62.8086,-77.55078 -25.88,-12.17 -56.4903,-23.48109 -80.57036,-35.12109 z"
     style="fill:#000000;fill-opacity:0"
     id="path4" />
  <path
     d="m 309.60546,35.062498 c -8.41005,-0.143796 -16.51522,0.195938 -23.98047,1.148438 -140.872,14.71 -237.718367,106.398774 -249.984367,250.300774 -1.562,18.315 -0.05756,34.32281 0.273438,52.50781 18.57,-24.702 41.172964,-47.38697 70.292969,-59.16797 31.624,-12.793 70.41534,-10.63088 98.15234,10.20312 19.19,14.385 31.72628,35.94138 34.73828,59.73438 6.013,45.629 -20.50528,79.49659 -42.73828,115.93359 -10.546,17.041 -20.0806,34.68765 -28.5586,52.84765 -54.149,117.7 -59.7919,243.5992 23.2461,350.4492 17.696,22.95 38.15596,43.61906 60.91796,61.53906 52.401,40.53 116.75543,62.05078 182.27343,68.55078 29.878,2.96007 58.71315,2.44097 88.66015,2.46097 l 97.58594,0.059 c 84.24,-0.29 168.49217,-0.09 252.74217,0.5898 -20.12,-56.85001 -68.6914,-42.84984 -116.9414,-44.33984 -11.32,-0.35 -30.16078,2.77032 -35.05078,-10.67968 -4.09,-11.26 4.05157,-18.42735 10.85157,-26.02735 5.94,-6.63 11.84999,-13.07249 16.99999,-20.31249 30.6,-43.35 39.86016,-98.24828 25.16016,-149.23828 -18.13,-63.87 -76.09156,-116.67015 -142.85156,-123.91015 -9.57,-1.4 -20.15953,-0.67062 -29.26953,-3.89062 -15.6,-5.5 -9.60828,-31.29157 5.01172,-31.60157 43.91,-0.92 90.02734,13.79313 125.02734,40.45313 8.4,6.4 15.94125,13.6075 24.53125,19.6875 22.08,11.57 54.22109,25.59078 79.37109,22.30078 23.59,-3.09 43.97859,-15.14969 66.30859,-22.92969 18.46,-6.43 41.5514,-4.60141 56.1914,-14.69141 12.43,-20.77 0.52985,-32.50906 -21.41015,-33.28906 -7.5,-0.27 -15.11203,0.3186 -22.58203,0.0586 -32.96,-0.67 -73.29937,-5.90703 -97.35937,-30.95703 -20.76,-21.61 -21.83766,-58.45225 0.90234,-79.40625 20.7,-19.078 40.70812,-11.01797 65.32812,-12.66797 48.57,-3.253 108.2006,-18.90934 131.89063,-66.02734 -9.12,-25.37 -25.30032,-54.42678 -40.57032,-76.80078 -17.76,-26.015 -45.39156,-48.66402 -73.85156,-62.08202 -14.16,-6.677 -29.77718,-11.99732 -45.11718,-15.19532 -11.36,-2.217 -25.57313,-2.06553 -35.95313,-5.76953 -7.26,-2.594 -12.04984,-14.48918 -14.58984,-21.49218 -9.91,-27.314 -28.67906,-48.94659 -50.03906,-68.55859 -10.06,25.93 -18.96031,62.69746 -11.07031,90.23046 9.92,34.623 5.75109,34.51562 -13.62891,61.14062 -55.04,75.606 -130.41864,103.03422 -212.22264,138.69922 -71.863,31.331 -141.24725,90.55718 -167.90625,165.86718 -29.86,80.54 -21.85962,170.44108 9.10938,249.37108 3.809,10.7 17.35597,27.70109 13.16797,39.12109 -5.644,15.06 -24.60322,15.29797 -31.69922,1.16797 -49.726,-99.05 -60.09381,-223.70764 -12.63281,-325.59764 46.172,-99.11 137.81658,-146.98137 233.93358,-185.60937 43.42,-144.364 -26.37321,-313.747485 -177.82421,-353.312485 -21.6345,-5.65125 -49.60579,-10.435796 -74.83593,-10.867187 z"
     style="fill:#000000;fill-opacity:0;stroke:#ffffff;stroke-opacity:1;stroke-width:0;stroke-dasharray:none"
     id="path3" />
  <path
     d="m 307.95311,1.4374999 c -6.65725,-0.043594 -13.19694,0.1975313 -19.49219,0.8007813 -59.736,4.82 -106.30861,18.3185288 -156.76561,51.3945288 -104.404005,68.44 -145.418372,194.71671 -126.7343727,314.38671 1.775,11.371 2.4341867,27.00762 11.6171867,35.01562 8.549,6.501 20.888687,3.26103 25.679687,-6.04297 18.872,-36.654 43.620338,-77.35868 86.152339,-88.55468 54.303,-13.863 94.08897,33.26574 70.91797,84.59374 -9.508,21.061 -21.659,37.52866 -33.5,56.97266 -70.440004,115.665 -101.40694,262.34529 -35.33594,388.44529 29.5,56.36 73.295,103.97984 127,138.08984 105.983,67.15998 218.34048,59.79048 338.06248,58.73048 l 126.73046,0.039 c 41.74,0.55 83.47875,0.7404 125.21875,0.5704 14.83,0 35.60062,1.0831 49.89062,-1.0469 18.01,-2.69 10.30141,-35.15345 6.94141,-45.52345 -7.76,-23.97 -20.97063,-43.02843 -43.89063,-54.39843 -27.13,-14.23 -55.20796,-11.81032 -85.16796,-11.32032 46.97,-77.2 53.3875,-135.78921 16.9375,-219.44921 23.8,2.97 29.04218,6.06875 53.99218,3.46875 24.81,-5.28 42.76828,-13.87796 65.98828,-23.66796 4.29,32.56 14.57203,46.99843 31.33203,73.64843 20.91,33.24 23.0481,24.69969 57.8281,17.17969 34.25,-7.41 62.3805,-21.15797 82.4805,-51.16797 12.08,-17.66 17.6584,-36.49234 26.8984,-55.40234 11.68,-5.63 17.4811,-8.80812 22.1211,-21.82812 13.44,-37.81 -6.4204,-71.96891 -38.7304,-91.87891 -4,-2.47 -9.889,-5.70125 -11.379,-10.28125 8.23,-12.91 40.4879,-9.77218 35.0079,-34.24218 -2.7,-12.08 -18.7902,-12.12985 -28.1602,-9.83985 -16.82,4.12 -30.7872,16.37328 -39.3672,31.11328 l -0.5703,1 c -36.92,-9.92 -82.86093,-14.3525 -107.21093,22.1875 -3.61,5.42 -5.59109,10.69953 -8.62109,16.26953 -26.08,0.59 -94.76859,-0.22765 -98.55859,-39.59765 -0.36,-3.73 1.99859,-8.37094 4.80859,-10.96094 2.97,-2.75 6.67235,-4.59859 10.65235,-5.30859 8.23,-1.45 29.68062,-0.14172 40.89062,-1.01172 51.89,-4.02 108.0381,-20.98681 141.32815,-63.50781 6.58,-8.401 16.5518,-22.94462 17.1718,-33.64062 1.55,-26.485 -48.7417,-102.59303 -67.26167,-122.45703 -36.74,-39.418 -90.15922,-67.56403 -144.69922,-69.45703 -11.53,-34.157 -34.28109,-62.20146 -61.62109,-85.48046 -32.7,-27.852 -39.45828,-17.60353 -53.73828,17.73047 -17.99,44.513 -18.68984,77.44643 -7.83984,123.89843 -24.74,32.408 -45.20297,55.97549 -79.54297,79.43749 -10.57,7.226 -24.80828,14.929 -34.23828,21.625 2.7,-15.798 5.14922,-30.09115 6.19922,-46.16015 4.81,-73.7 -13.51781,-152.3973 -56.50781,-213.0703 C 507.53616,61.426274 441.55814,19.911906 367.53514,7.3789059 348.94489,4.2581559 327.92486,1.5682812 307.95311,1.4374999 Z m 1.65235,33.6249981 c 25.23014,0.431391 53.20143,5.215937 74.83593,10.867187 151.451,39.565 221.24421,208.948485 177.82421,353.312485 -96.117,38.628 -187.76158,86.49937 -233.93358,185.60937 -47.461,101.89 -37.09319,226.54764 12.63281,325.59764 7.096,14.13 26.05522,13.89203 31.69922,-1.16797 4.188,-11.42 -9.35897,-28.42109 -13.16797,-39.12109 -30.969,-78.93 -38.96938,-168.83108 -9.10938,-249.37108 26.659,-75.31 96.04325,-134.53618 167.90625,-165.86718 81.804,-35.665 157.18264,-63.09322 212.22264,-138.69922 19.38,-26.625 23.54891,-26.51762 13.62891,-61.14062 -7.89,-27.533 1.01031,-64.30046 11.07031,-90.23046 21.36,19.612 40.12906,41.24459 50.03906,68.55859 2.54,7.003 7.32984,18.89818 14.58984,21.49218 10.38,3.704 24.59313,3.55253 35.95313,5.76953 15.34,3.198 30.95718,8.51832 45.11718,15.19532 28.46,13.418 56.09156,36.06702 73.85156,62.08202 15.27,22.374 31.45032,51.43078 40.57032,76.80078 -23.69003,47.118 -83.32063,62.77434 -131.89063,66.02734 -24.62,1.65 -44.62812,-6.41003 -65.32812,12.66797 -22.74,20.954 -21.66234,57.79625 -0.90234,79.40625 24.06,25.05 64.39937,30.28703 97.35937,30.95703 7.47,0.26 15.08203,-0.3286 22.58203,-0.0586 21.94,0.78 33.84015,12.51906 21.41015,33.28906 -14.64,10.09 -37.7314,8.26141 -56.1914,14.69141 -22.33,7.78 -42.71859,19.83969 -66.30859,22.92969 -25.15,3.29 -57.29109,-10.73078 -79.37109,-22.30078 -8.59,-6.08 -16.13125,-13.2875 -24.53125,-19.6875 -35,-26.66 -81.11734,-41.37313 -125.02734,-40.45313 -14.62,0.31 -20.61172,26.10157 -5.01172,31.60157 9.11,3.22 19.69953,2.49062 29.26953,3.89062 66.76,7.24 124.72156,60.04015 142.85156,123.91015 14.7,50.99 5.43984,105.88828 -25.16016,149.23828 -5.15,7.24 -11.05999,13.68249 -16.99999,20.31249 -6.8,7.6 -14.94157,14.76735 -10.85157,26.02735 4.89,13.45 23.73078,10.32968 35.05078,10.67968 48.25,1.49 96.8214,-12.51017 116.9414,44.33984 -84.25,-0.68 -168.50217,-0.8798 -252.74217,-0.5898 l -97.58594,-0.059 c -29.947,-0.02 -58.78215,0.4991 -88.66015,-2.46097 -65.518,-6.5 -129.87243,-28.02078 -182.27343,-68.55078 -22.762,-17.92 -43.22196,-38.58906 -60.91796,-61.53906 -83.038,-106.85 -77.3951,-232.7492 -23.2461,-350.4492 8.478,-18.16 18.0126,-35.80665 28.5586,-52.84765 22.233,-36.437 48.75128,-70.30459 42.73828,-115.93359 -3.012,-23.793 -15.54828,-45.34938 -34.73828,-59.73438 -27.737,-20.834 -66.52834,-22.99612 -98.15234,-10.20312 -29.120005,11.781 -51.722969,34.46597 -70.292969,59.16797 -0.331,-18.185 -1.835438,-34.19281 -0.273438,-52.50781 12.266,-143.902 109.112367,-235.590774 249.984367,-250.300774 7.46525,-0.9525 15.57042,-1.292234 23.98047,-1.148438 z M 1003.7343,559.24216 c 35.22,0.05 86.8202,20.75672 98.6602,57.63672 1.14,3.53 1.2528,9.73109 1.3828,13.62109 -7.76,-3.21 -15.4616,-6.55125 -23.1016,-10.03125 -35.96,-15.54 -75.801,-31.19828 -110.87106,-47.73828 11.69,-9.66 19.30967,-12.38828 33.92966,-13.48828 z m -5.42966,63.1875 c 24.08006,11.64 54.69036,22.95109 80.57036,35.12109 -15.72,36.69 -24.1686,61.13078 -62.8086,77.55078 -11.3,4.71 -26.63019,7.31875 -38.91019,10.46875 -19.34,-27.16 -26.79953,-35.49984 -31.76953,-68.33984 33.35,-5.36 49.47796,-20.56078 52.91796,-54.80078 z"
     style="mix-blend-mode:darken;fill:#ffffff;fill-opacity:1;stroke:none;stroke-width:28.422;stroke-dasharray:none;marker-start:url(#ArrowWide);paint-order:stroke fill markers;fill-rule:nonzero"
     id="path2" />
</svg>
