<?xml version="1.0" encoding="UTF-8" standalone="no"?>
<svg
   version="1.1"
   style="display:block"
   viewBox="0 0 1136.524 1034.7209"
   width="568.26202"
   height="517.36047"
   preserveAspectRatio="none"
   id="svg1"
   xmlns="http://www.w3.org/2000/svg"
   xmlns:svg="http://www.w3.org/2000/svg">
  <defs
     id="defs1" />
  <g
     id="use2"
     transform="translate(-455.76439,-506.61287)">
    <path
       fill="rgb(31,60,97)"
       d="m 743.634,507.418 c 25.181,-2.413 54.289,0.978 79.076,5.139 74.023,12.533 139.999,54.05 183.33,115.362 42.99,60.673 61.32,139.371 56.51,213.071 -1.05,16.069 -3.5,30.359 -6.2,46.157 9.43,-6.696 23.67,-14.399 34.24,-21.625 34.34,-23.462 54.8,-47.028 79.54,-79.436 -10.85,-46.452 -10.15,-79.384 7.84,-123.897 14.28,-35.334 21.04,-45.583 53.74,-17.731 27.34,23.279 50.09,51.323 61.62,85.48 54.54,1.893 107.96,30.038 144.7,69.456 18.52,19.864 68.81,95.973 67.26,122.458 -0.62,10.696 -10.59,25.238 -17.17,33.639 -33.29,42.521 -89.44,59.489 -141.33,63.509 -11.21,0.87 -32.66,-0.44 -40.89,1.01 -3.98,0.71 -7.68,2.56 -10.65,5.31 -2.81,2.59 -5.17,7.23 -4.81,10.96 3.79,39.37 72.48,40.19 98.56,39.6 3.03,-5.57 5.01,-10.85 8.62,-16.27 24.35,-36.54 70.29,-32.11 107.21,-22.19 l 0.57,-1 c 8.58,-14.74 22.55,-26.99 39.37,-31.11 9.37,-2.29 25.46,-2.24 28.16,9.84 5.48,24.47 -26.78,21.33 -35.01,34.24 1.49,4.58 7.38,7.81 11.38,10.28 32.31,19.91 52.17,54.07 38.73,91.88 -4.64,13.02 -10.44,16.2 -22.12,21.83 -9.24,18.91 -14.82,37.74 -26.9,55.4 -20.1,30.01 -48.23,43.76 -82.48,51.17 -34.78,7.52 -36.92,16.06 -57.83,-17.18 -16.76,-26.65 -27.04,-41.09 -31.33,-73.65 -23.22,9.79 -41.18,18.39 -65.99,23.67 -24.95,2.6 -30.19,-0.5 -53.99,-3.47 36.45,83.66 30.03,142.25 -16.94,219.45 29.96,-0.49 58.04,-2.91 85.17,11.32 22.92,11.37 36.13,30.43 43.89,54.4 3.36,10.37 11.07,42.83 -6.94,45.52 -14.29,2.13 -35.06,1.05 -49.89,1.05 -41.74,0.17 -83.48,-0.02 -125.22,-0.57 l -126.73,-0.04 c -119.722,1.06 -232.079,8.43 -338.062,-58.73 -53.705,-34.11 -97.502,-81.73 -127.002,-138.09 -66.071,-126.1 -35.103,-272.78 35.337,-388.445 11.841,-19.444 23.992,-35.912 33.5,-56.973 23.171,-51.328 -16.617,-98.456 -70.92,-84.593 -42.532,11.196 -67.277,51.898 -86.149,88.552 -4.791,9.304 -17.131,12.544 -25.68,6.043 -9.183,-8.008 -9.843,-23.644 -11.618,-35.015 -18.684,-119.67 22.331,-245.946 126.735,-314.386 50.457,-33.076 97.027,-46.575 156.763,-51.395 z M 491.09,844.2 c 18.57,-24.702 41.173,-47.386 70.293,-59.167 31.624,-12.793 70.415,-10.631 98.152,10.203 19.19,14.385 31.724,35.939 34.736,59.732 6.013,45.629 -20.503,79.499 -42.736,115.936 -10.546,17.041 -20.083,34.686 -28.561,52.846 -54.149,117.7 -59.792,243.6 23.246,350.45 17.696,22.95 38.158,43.62 60.92,61.54 52.401,40.53 116.754,62.05 182.272,68.55 29.878,2.96 58.715,2.44 88.662,2.46 l 97.586,0.06 c 84.24,-0.29 168.49,-0.09 252.74,0.59 -20.12,-56.85 -68.69,-42.85 -116.94,-44.34 -11.32,-0.35 -30.16,2.77 -35.05,-10.68 -4.09,-11.26 4.05,-18.43 10.85,-26.03 5.94,-6.63 11.85,-13.07 17,-20.31 30.6,-43.35 39.86,-98.25 25.16,-149.24 -18.13,-63.87 -76.09,-116.67 -142.85,-123.91 -9.57,-1.4 -20.16,-0.67 -29.27,-3.89 -15.6,-5.5 -9.61,-31.29 5.01,-31.6 43.91,-0.92 90.03,13.79 125.03,40.45 8.4,6.4 15.94,13.61 24.53,19.69 22.08,11.57 54.22,25.59 79.37,22.3 23.59,-3.09 43.98,-15.15 66.31,-22.93 18.46,-6.43 41.55,-4.6 56.19,-14.69 12.43,-20.77 0.53,-32.51 -21.41,-33.29 -7.5,-0.27 -15.11,0.32 -22.58,0.06 -32.96,-0.67 -73.3,-5.91 -97.36,-30.96 -20.76,-21.61 -21.84,-58.45 0.9,-79.404 20.7,-19.078 40.71,-11.018 65.33,-12.668 48.57,-3.253 108.2,-18.912 131.89,-66.03 -9.12,-25.37 -25.3,-54.424 -40.57,-76.798 -17.76,-26.015 -45.39,-48.666 -73.85,-62.084 -14.16,-6.677 -29.78,-11.998 -45.12,-15.196 -11.36,-2.217 -25.57,-2.062 -35.95,-5.766 -7.26,-2.594 -12.05,-14.492 -14.59,-21.495 -9.91,-27.314 -28.68,-48.946 -50.04,-68.558 -10.06,25.93 -18.96,62.698 -11.07,90.231 9.92,34.623 5.75,34.515 -13.63,61.14 -55.04,75.606 -130.42,103.035 -212.224,138.7 -71.863,31.331 -141.247,90.558 -167.906,165.868 -29.86,80.54 -21.857,170.44 9.112,249.37 3.809,10.7 17.353,27.7 13.165,39.12 -5.644,15.06 -24.603,15.3 -31.699,1.17 -49.726,-99.05 -60.091,-223.71 -12.63,-325.6 C 829.68,990.92 921.323,943.048 1017.44,904.42 1060.86,760.056 991.067,590.673 839.616,551.108 810.77,543.573 770.662,537.58 740.801,541.39 599.929,556.1 503.082,647.788 490.816,791.69 c -1.562,18.315 -0.057,34.325 0.274,52.51 z m 967.82,220.22 c -14.62,1.1 -22.24,3.83 -33.93,13.49 35.07,16.54 74.91,32.2 110.87,47.74 7.64,3.48 15.34,6.82 23.1,10.03 -0.13,-3.89 -0.24,-10.09 -1.38,-13.62 -11.84,-36.88 -63.44,-57.59 -98.66,-57.64 z m -5.43,63.19 c -3.44,34.24 -19.57,49.44 -52.92,54.8 4.97,32.84 12.43,41.18 31.77,68.34 12.28,-3.15 27.61,-5.76 38.91,-10.47 38.64,-16.42 47.09,-40.86 62.81,-77.55 -25.88,-12.17 -56.49,-23.48 -80.57,-35.12 z"
       id="path3"
       style="fill:#ffffff;fill-opacity:1" />
  </g>
</svg>
